<?xml version="1.0" standalone="no"?>
<!DOCTYPE svg PUBLIC "-//W3C//DTD SVG 20010904//EN"
 "http://www.w3.org/TR/2001/REC-SVG-20010904/DTD/svg10.dtd">
<svg version="1.0" xmlns="http://www.w3.org/2000/svg"
 width="1366.000000pt" height="768.000000pt" viewBox="0 0 1366.000000 768.000000"
 preserveAspectRatio="xMidYMid meet">

<g transform="translate(0.000000,768.000000) scale(0.100000,-0.100000)"
fill="#000000" stroke="none">
<path d="M0 3840 l0 -3840 6830 0 6830 0 0 3559 0 3559 -25 4 c-13 3 -22 2
-20 -2 3 -5 -2 -10 -9 -13 -8 -3 -16 -1 -18 5 -3 8 -14 6 -36 -5 -18 -8 -32
-12 -32 -9 0 4 -25 7 -55 7 -30 0 -55 -3 -55 -7 0 -11 -54 -5 -62 7 -5 6 -8 3
-8 -7 0 -21 -4 -22 -31 -8 -27 15 -89 2 -82 -16 4 -12 0 -12 -22 -4 -15 6 -30
8 -33 5 -3 -3 1 -5 8 -5 12 0 12 -2 1 -12 -11 -10 -14 -10 -18 0 -6 17 -23 15
-23 -3 0 -8 -5 -15 -11 -15 -5 0 -8 4 -5 9 3 5 -11 8 -32 6 -20 -1 -40 3 -44
9 -5 8 -19 4 -46 -11 -33 -18 -41 -19 -62 -8 -16 9 -31 10 -42 4 -9 -5 -39
-10 -67 -12 -27 -1 -53 -5 -56 -9 -4 -3 -46 -4 -93 -1 -147 9 -166 7 -156 -9
6 -9 3 -9 -9 0 -10 9 -25 11 -39 6 -38 -12 -99 -13 -92 -2 4 5 -4 4 -17 -3
-13 -7 -34 -12 -46 -10 -13 1 -28 -1 -35 -5 -7 -5 -28 -7 -46 -5 -19 1 -32 -1
-29 -6 4 -6 -18 -9 -48 -9 -30 1 -55 -3 -55 -7 0 -5 -5 -5 -11 -1 -8 4 -5 11
9 18 17 9 18 13 6 24 -18 16 -25 15 -18 -3 4 -9 0 -15 -9 -15 -8 0 -18 -6 -20
-12 -3 -8 -6 -6 -6 5 -1 14 -7 16 -28 11 -21 -4 -24 -3 -13 5 11 8 8 9 -14 7
-15 -2 -32 -9 -37 -17 -6 -10 -9 -10 -9 -1 0 6 -7 12 -16 12 -8 0 -13 -4 -10
-8 2 -4 -4 -14 -16 -21 -11 -7 -18 -9 -15 -4 3 5 1 15 -4 23 -8 13 -10 13 -18
0 -6 -8 -13 -12 -16 -8 -4 4 -27 1 -51 -7 -24 -7 -41 -9 -38 -4 3 5 -4 9 -15
9 -22 0 -30 -20 -8 -21 6 0 3 -4 -8 -9 -13 -5 -26 -3 -37 7 -10 9 -24 13 -33
10 -20 -8 -47 2 -38 16 3 6 1 7 -6 3 -6 -4 -9 -11 -6 -16 3 -4 -4 -10 -16 -13
-16 -4 -18 -3 -8 9 20 24 -17 17 -40 -8 -17 -17 -23 -19 -35 -9 -8 7 -24 10
-35 6 -20 -6 -23 8 -7 34 7 11 6 12 -5 5 -8 -5 -23 -7 -34 -6 -15 2 -16 0 -7
-6 11 -7 11 -10 -2 -15 -10 -4 -16 -1 -16 8 0 8 -8 15 -17 15 -13 0 -14 -3 -6
-8 9 -6 7 -11 -7 -20 -16 -10 -18 -9 -14 3 4 11 -1 15 -16 15 -16 0 -20 -4
-16 -15 3 -8 1 -15 -4 -15 -6 0 -10 5 -10 10 0 6 -20 10 -44 10 -26 0 -46 5
-49 13 -2 6 -4 0 -4 -15 0 -16 4 -28 10 -28 6 0 7 -3 4 -7 -4 -3 -15 1 -24 9
-21 18 -78 34 -69 19 4 -5 -7 -9 -24 -9 -16 1 -30 4 -30 8 0 11 -34 8 -42 -4
-4 -7 -38 -11 -83 -10 -41 0 -75 -3 -75 -8 0 -5 6 -6 13 -2 6 4 9 3 4 -1 -10
-12 -47 -17 -47 -7 0 10 -154 2 -158 -9 -5 -13 -36 -11 -50 3 -9 9 -12 9 -12
0 0 -7 -12 -12 -27 -11 -25 0 -26 1 -8 9 19 8 19 9 -2 9 -13 1 -23 -3 -23 -9
0 -5 -7 -10 -16 -10 -8 0 -12 -4 -9 -10 3 -6 -1 -7 -9 -4 -11 4 -16 0 -16 -10
0 -9 -4 -16 -9 -16 -5 0 -7 8 -4 18 4 15 -1 19 -26 20 -22 0 -31 -4 -32 -16 0
-11 -3 -12 -6 -5 -3 8 -14 11 -29 7 -13 -3 -32 -3 -41 1 -27 12 -44 14 -38 6
2 -5 -2 -17 -10 -27 -8 -10 -15 -14 -15 -8 0 6 -11 16 -25 22 -19 9 -24 9 -22
0 1 -7 -13 -13 -33 -15 -24 -2 -31 0 -20 6 9 7 -1 8 -30 6 -25 -2 -55 -4 -68
-4 -13 -1 -20 -5 -17 -11 4 -6 14 -9 23 -6 10 3 35 1 57 -4 l40 -9 -47 4 c-27
3 -48 0 -48 -5 0 -5 -6 -7 -14 -4 -8 3 -16 -2 -19 -13 -4 -14 -5 -14 -6 5 -1
17 -7 22 -26 22 -16 0 -25 6 -25 15 0 8 -5 15 -11 15 -5 0 -7 -5 -4 -10 3 -6
-5 -10 -18 -10 -14 0 -28 -7 -31 -16 -4 -11 -12 -13 -28 -8 -13 4 -44 8 -70 9
-41 1 -46 -1 -37 -16 12 -23 11 -29 -2 -29 -5 0 -8 4 -5 9 3 5 -1 14 -9 21
-12 10 -15 9 -15 -4 0 -9 -4 -16 -10 -16 -5 0 -10 6 -10 13 0 8 -4 7 -10 -3
-7 -11 -10 -11 -10 -2 0 7 -5 10 -10 7 -6 -4 -17 -1 -25 5 -8 7 -15 9 -15 5 0
-4 -6 -2 -14 4 -10 9 -17 7 -27 -6 -13 -16 -12 -17 3 -5 11 9 18 10 23 2 10
-16 -21 -23 -66 -16 -27 4 -38 3 -34 -4 9 -15 -12 -12 -27 4 -9 10 -21 11 -46
4 -27 -7 -38 -6 -52 7 -13 12 -20 13 -25 5 -4 -7 -21 -10 -37 -8 -18 3 -27 1
-25 -6 3 -6 -3 -18 -11 -26 -14 -13 -15 -12 -9 4 6 16 3 18 -33 14 -22 -2 -42
1 -44 7 -3 6 -8 6 -13 -2 -5 -6 -20 -13 -33 -15 -14 -2 -30 -7 -36 -10 -6 -4
-11 -1 -11 7 0 8 5 15 10 15 6 0 7 3 4 7 -9 8 -47 -27 -47 -44 0 -18 -13 -16
-38 5 -19 17 -19 19 -4 29 14 9 12 10 -10 6 -15 -3 -26 -9 -23 -13 3 -4 -11
-11 -30 -14 -24 -5 -33 -11 -28 -21 7 -20 -7 -19 -22 2 -11 15 -17 15 -39 5
-36 -16 -54 -16 -38 0 7 7 12 16 12 20 0 16 -22 7 -46 -19 -19 -21 -24 -23
-20 -9 6 16 4 17 -9 6 -8 -7 -15 -9 -15 -4 0 5 -4 3 -9 -4 -6 -11 -11 -10 -25
3 -9 9 -16 12 -16 6 0 -6 -10 -11 -22 -11 -19 0 -20 2 -8 10 8 5 11 10 5 10
-5 -1 -18 -7 -28 -14 -13 -10 -15 -15 -5 -19 7 -3 -8 -4 -34 -3 -25 0 -41 4
-35 8 7 4 -22 7 -63 6 -41 -1 -80 1 -87 5 -7 5 -9 0 -6 -13 3 -11 9 -20 13
-20 4 0 10 -7 14 -15 7 -20 -16 -15 -32 8 -9 12 -28 17 -60 18 -40 1 -43 2
-22 10 21 7 20 8 -9 4 -18 -3 -38 -5 -43 -5 -5 0 -7 -4 -4 -9 8 -12 -50 -22
-80 -15 -15 4 -24 2 -24 -5 0 -6 -9 -11 -20 -11 -12 0 -20 -7 -20 -16 0 -13
-2 -14 -14 -1 -9 8 -26 12 -40 10 -17 -4 -26 -1 -26 7 0 10 -3 10 -14 1 -11
-9 -19 -9 -35 1 -15 9 -23 10 -32 1 -8 -8 -19 -9 -36 -2 -27 10 -93 8 -87 -3
3 -4 -9 -5 -27 -1 -21 4 -30 2 -26 -4 4 -6 -6 -9 -28 -6 -18 2 -36 -1 -40 -7
-11 -17 -23 -11 -18 9 3 10 0 22 -6 25 -6 4 -9 1 -5 -7 3 -8 -1 -19 -9 -25
-11 -9 -19 -8 -37 8 -25 22 -35 26 -25 10 3 -5 -1 -10 -10 -10 -9 0 -14 4 -11
9 3 4 -6 6 -19 3 -13 -2 -24 -7 -23 -11 0 -3 0 -11 -1 -18 -1 -16 -71 -12 -71
4 0 7 -6 10 -14 7 -8 -3 -17 0 -21 6 -4 7 -13 4 -25 -10 -18 -20 -20 -21 -44
-5 -20 14 -26 14 -26 4 0 -9 -14 -15 -41 -16 -32 -2 -40 0 -36 11 4 11 -2 14
-24 14 -20 -1 -28 -5 -25 -14 2 -6 -5 -15 -17 -18 -33 -9 -56 -5 -27 4 21 7
22 8 5 10 -17 2 -17 3 5 11 19 6 15 7 -15 3 -22 -4 -52 -7 -67 -7 -16 0 -28
-4 -28 -8 0 -5 -7 -9 -16 -9 -9 0 -12 -5 -8 -12 4 -7 3 -8 -5 -4 -9 6 -8 14 3
32 9 13 16 27 16 31 0 4 -5 0 -11 -9 -5 -10 -17 -18 -24 -18 -8 0 -15 -4 -15
-9 0 -13 -54 -21 -86 -12 l-29 9 25 10 c23 10 23 11 4 11 -12 1 -24 -6 -28
-14 -3 -8 -15 -15 -26 -15 -12 0 -19 -4 -15 -9 3 -6 -4 -9 -15 -8 -11 1 -18 7
-16 13 3 7 -4 14 -15 17 -10 3 -17 1 -13 -4 3 -5 -1 -9 -9 -9 -8 0 -17 9 -20
20 -3 12 -13 20 -24 19 -16 -1 -16 -2 0 -6 26 -7 20 -21 -10 -25 -17 -2 -27
-8 -25 -16 1 -8 -2 -11 -8 -7 -6 3 -8 9 -6 13 2 4 -22 8 -55 9 -42 1 -59 -2
-59 -11 0 -7 -10 -12 -22 -10 -13 1 -29 3 -36 3 -7 1 -11 5 -8 10 4 5 -3 7
-14 4 -11 -3 -20 -14 -20 -24 0 -23 -35 -26 -44 -3 -3 8 -10 13 -15 10 -5 -4
-12 0 -14 6 -4 8 -8 4 -12 -9 -10 -31 -50 -31 -66 -1 -12 22 -12 22 -20 3 -5
-15 -8 -16 -8 -4 -1 9 -8 16 -16 16 -18 0 -19 -9 -3 -25 9 -9 4 -12 -22 -13
-19 0 -56 -2 -82 -3 -27 -1 -48 1 -48 5 0 4 -9 5 -20 2 -28 -7 -25 15 3 27
l22 9 -22 0 c-13 1 -23 -3 -23 -9 0 -5 -9 -10 -20 -10 -11 0 -20 -6 -20 -12 0
-9 -3 -9 -9 1 -5 8 -16 11 -25 8 -36 -14 -136 -19 -150 -8 -12 10 -13 8 -9
-10 4 -15 3 -20 -5 -15 -7 4 -13 17 -13 29 -1 16 -3 17 -6 5 -2 -9 -12 -16
-21 -16 -9 0 -30 -2 -47 -5 -16 -2 -24 -2 -17 0 22 8 12 23 -10 15 -40 -13
-85 -2 -73 19 10 15 -22 10 -35 -6 -10 -13 -9 -15 8 -15 12 0 24 -5 27 -10 4
-7 -3 -8 -22 -4 -37 9 -44 14 -38 25 9 13 -21 40 -38 33 -9 -3 -13 -15 -10
-32 3 -22 2 -24 -6 -10 -7 10 -19 14 -31 11 -11 -3 -17 -10 -13 -16 4 -6 -4
-7 -22 -3 -19 5 -33 2 -46 -10 -15 -14 -22 -15 -31 -6 -7 7 -20 12 -31 12 -11
0 -15 4 -11 12 4 6 3 8 -3 5 -6 -4 -29 -9 -51 -12 -35 -4 -42 -2 -47 16 -5 15
-10 18 -15 9 -5 -8 -9 -7 -14 6 -4 10 -2 21 4 24 8 5 6 9 -5 13 -9 4 -13 3
-10 -3 3 -6 1 -10 -6 -10 -10 0 -10 -3 -1 -12 7 -7 12 -21 12 -32 -1 -18 -3
-17 -16 7 -14 27 -34 37 -34 17 0 -5 -4 -10 -10 -10 -5 0 -10 7 -10 15 0 9 -6
12 -17 9 -15 -5 -15 -3 1 10 23 18 18 20 -18 6 -17 -6 -26 -6 -26 0 0 6 -5 10
-11 10 -5 0 -7 -4 -4 -10 3 -5 1 -10 -6 -10 -10 0 -10 -3 -1 -12 7 -7 12 -17
12 -22 0 -6 -5 -4 -10 4 -5 8 -13 15 -17 16 -4 0 -23 4 -41 8 -22 5 -38 4 -45
-3 -6 -6 -17 -11 -25 -11 -18 0 -43 26 -34 35 4 5 1 5 -6 1 -6 -4 -12 -14 -12
-22 0 -8 -5 -14 -11 -14 -6 0 -9 7 -5 15 4 12 -2 14 -30 12 -34 -2 -35 -2 -14
-19 12 -10 16 -19 10 -23 -5 -3 -10 -1 -10 4 0 6 -7 11 -15 11 -9 0 -27 7 -40
16 -18 12 -35 14 -67 9 -39 -7 -41 -6 -29 9 12 14 11 16 -10 16 -13 0 -30 -4
-37 -9 -10 -6 -8 -10 10 -16 l23 -8 -22 -4 c-13 -2 -23 -9 -23 -14 0 -5 -16
-3 -35 5 -19 8 -35 11 -35 6 0 -4 -9 -6 -20 -3 -11 3 -20 9 -20 14 0 5 -11 4
-25 -1 -19 -7 -23 -6 -18 5 3 8 9 13 13 10 5 -3 11 -1 15 5 4 6 -13 10 -47 10
-61 0 -93 -14 -56 -23 12 -4 25 -2 26 3 5 15 22 12 22 -4 0 -8 -15 -19 -32
-25 -27 -10 -35 -9 -44 4 -9 13 -13 13 -18 3 -5 -10 -7 -10 -12 0 -3 6 -14 12
-24 12 -10 0 -22 5 -25 10 -7 11 -25 4 -25 -9 0 -4 10 -13 23 -19 21 -10 20
-11 -10 -9 -17 0 -39 -5 -48 -13 -15 -12 -18 -12 -26 3 -7 11 -22 17 -44 17
-27 0 -33 3 -29 15 5 11 13 13 28 8 11 -3 28 -7 37 -7 10 0 15 -6 12 -13 -3
-7 2 -13 11 -13 17 0 21 17 8 38 -5 7 -16 10 -26 6 -11 -4 -22 -1 -27 7 -7 11
-9 11 -9 1 0 -7 -5 -10 -10 -7 -6 4 -17 1 -25 -5 -8 -7 -15 -9 -15 -4 0 5 -5
2 -10 -6 -9 -13 -11 -13 -20 0 -8 13 -10 12 -10 -2 0 -10 -4 -18 -10 -18 -5 0
-19 -10 -31 -22 -12 -13 -19 -17 -15 -10 4 7 2 12 -6 12 -10 0 -9 3 2 10 12 7
11 10 -5 16 -29 11 -80 8 -78 -4 2 -8 -5 -9 -19 -3 -23 8 -37 31 -19 31 6 0
11 5 11 11 0 8 -4 8 -14 0 -10 -8 -13 -23 -9 -44 4 -29 2 -32 -19 -32 -14 0
-25 6 -25 13 0 6 6 12 14 12 7 0 13 4 13 10 0 6 -11 5 -27 -2 -38 -16 -39 -18
-24 -27 9 -6 3 -10 -18 -13 -21 -3 -31 0 -31 9 0 7 8 13 17 13 14 0 13 3 -5
16 -13 9 -19 21 -15 27 3 7 -2 5 -13 -4 -10 -8 -26 -15 -34 -14 -8 0 -23 -8
-32 -19 -10 -10 -18 -14 -18 -8 0 6 -10 17 -22 23 -21 11 -22 11 -8 -5 13 -17
11 -18 -22 -15 -21 2 -40 0 -44 -4 -11 -11 -26 -8 -19 3 3 6 -1 10 -9 10 -9 0
-16 4 -16 9 0 5 -9 11 -20 14 -11 3 -20 1 -20 -4 0 -5 5 -9 11 -9 5 0 7 -4 4
-10 -3 -5 3 -10 15 -10 12 0 18 -5 15 -10 -4 -7 -13 -6 -27 1 -12 6 -51 13
-87 16 -36 2 -72 6 -78 8 -7 2 -13 -3 -13 -13 0 -13 -6 -10 -25 12 -14 16 -23
32 -20 35 4 3 9 1 13 -5 4 -5 17 -11 30 -11 16 -1 22 4 22 19 0 18 5 19 55 15
47 -4 54 -3 44 9 -6 8 -10 14 -8 15 33 6 45 6 58 0 9 -5 25 -4 36 0 18 9 18 9
-3 5 -12 -2 -20 0 -16 5 3 5 18 9 34 9 16 0 31 3 33 8 6 9 64 8 74 -1 11 -11
23 -8 20 5 -2 14 11 15 75 8 26 -4 45 -3 42 2 -6 10 -6 10 33 -1 18 -5 35 -6
37 -2 3 3 17 8 33 9 43 4 57 7 72 16 10 6 12 5 7 -2 -8 -14 0 -14 29 -2 21 8
16 12 -30 24 -11 3 -5 4 12 2 18 -1 34 2 36 7 2 6 17 6 37 2 21 -5 29 -10 20
-13 -8 -3 -20 -11 -27 -18 -10 -10 -9 -13 2 -18 22 -8 39 1 52 29 8 19 8 25 0
26 -25 3 51 17 95 18 26 0 50 6 54 12 4 8 -1 9 -17 5 -19 -6 -21 -5 -7 4 9 5
38 10 65 9 101 -2 154 2 148 11 -5 9 40 4 57 -6 4 -3 8 1 8 8 0 10 14 14 49
13 28 -1 48 2 45 7 -4 6 91 13 154 11 6 -1 12 3 12 7 0 5 24 10 53 13 28 3 88
10 132 16 44 6 118 16 165 22 47 5 99 12 115 14 17 2 57 6 89 10 33 3 62 8 65
9 3 2 33 7 66 10 33 4 69 9 80 11 27 6 106 14 190 20 39 3 93 10 120 15 28 5
75 12 105 15 30 4 69 8 85 10 17 2 75 7 130 10 55 3 107 8 115 12 8 3 29 7 45
9 17 2 53 9 82 15 28 5 74 11 101 13 27 2 53 6 58 9 6 3 41 8 79 12 108 8 148
15 160 25 6 5 24 6 40 1 19 -4 38 -3 52 4 13 7 42 11 65 9 23 -1 47 1 53 5 12
10 56 18 138 26 32 3 68 9 80 14 22 7 77 6 152 -3 71 -10 154 -13 151 -7 -2 3
73 6 167 6 95 -1 179 2 187 6 8 4 60 10 114 14 54 4 104 8 110 10 42 8 74 18
93 27 13 6 26 8 30 5 3 -4 16 -1 27 7 12 7 53 17 91 21 39 4 84 10 100 12 17
3 111 6 210 7 104 1 201 8 230 15 28 7 66 15 85 17 18 3 36 7 38 9 3 2 17 -2
32 -10 15 -8 29 -13 31 -11 5 4 299 21 372 21 26 0 47 4 47 9 0 5 6 4 13 -1 6
-6 21 -9 32 -7 11 2 43 4 70 5 28 0 77 6 111 13 33 7 69 11 80 10 43 -7 267
-16 389 -15 154 0 188 3 196 14 4 5 26 10 50 13 107 9 159 17 159 25 0 4 25 8
55 8 30 -1 55 -4 55 -8 0 -9 79 -5 168 7 34 5 62 5 62 0 0 -4 9 -8 20 -8 11 0
20 5 20 11 0 8 4 8 13 2 7 -6 62 -8 127 -6 63 3 120 4 125 3 6 0 53 -2 105 -4
52 -3 119 -7 150 -11 87 -11 259 -6 293 10 11 4 35 2 57 -5 21 -7 48 -10 59
-7 12 3 19 1 15 -4 -3 -5 24 -10 60 -10 36 -1 83 -3 104 -5 20 -1 84 -5 142
-9 58 -3 112 -9 120 -11 8 -3 87 -7 175 -8 88 -1 247 -6 354 -10 156 -6 208
-4 270 9 82 16 233 15 266 -2 11 -6 38 -8 60 -4 l40 6 3 118 3 117 -4441 0
c-2823 0 -4439 -3 -4435 -10 3 -5 12 -7 19 -4 8 3 17 0 21 -6 3 -6 3 -10 -2
-9 -20 3 -34 -2 -28 -11 8 -12 37 -9 47 5 10 13 20 1 13 -16 -3 -8 -15 -16
-27 -16 -12 -1 -26 -9 -30 -18 -5 -8 -14 -12 -20 -9 -7 5 -9 1 -5 -9 4 -11 1
-17 -8 -17 -9 0 -15 -10 -15 -24 0 -23 -2 -24 -32 -15 -43 12 -43 12 -27 -8
12 -15 12 -16 -3 -10 -10 4 -18 2 -18 -4 0 -6 -9 -9 -20 -6 -10 3 -18 0 -17
-5 1 -6 -4 -13 -10 -15 -7 -3 -13 0 -13 7 0 6 -4 8 -10 5 -5 -3 -10 -21 -10
-38 0 -23 -3 -28 -9 -17 -6 8 -7 18 -4 24 4 5 -10 0 -30 -13 -25 -15 -37 -18
-37 -10 0 8 -5 5 -13 -5 -12 -17 -14 -17 -20 -3 -8 21 -37 11 -37 -12 0 -9 -3
-12 -8 -6 -4 6 -11 11 -17 11 -5 1 -23 4 -39 8 -23 6 -27 4 -23 -8 3 -8 -1
-17 -9 -20 -25 -10 -44 -7 -41 6 1 8 -20 13 -61 15 -39 3 -62 0 -58 -5 7 -11
-40 -25 -55 -17 -24 16 -143 26 -159 14 -12 -8 -8 -9 17 -5 18 3 35 2 37 -3 3
-5 16 -7 28 -4 35 5 53 -10 39 -33 -11 -18 -11 -18 -9 1 2 16 -3 20 -27 20
-16 0 -36 -4 -42 -9 -8 -5 -13 -5 -13 0 0 5 -4 2 -10 -6 -6 -9 -5 -17 3 -23 7
-5 4 -6 -8 -2 -44 16 -67 17 -76 4 -7 -11 -9 -10 -9 4 0 9 6 17 14 17 8 0 16
7 20 15 3 9 0 15 -9 15 -8 0 -15 -5 -15 -11 0 -5 -5 -7 -10 -4 -6 4 -7 11 -4
17 4 7 2 8 -4 4 -7 -4 -12 -16 -12 -27 0 -23 -9 -24 -38 -3 -12 8 -28 12 -34
8 -7 -5 -25 -7 -40 -6 -15 1 -28 -2 -28 -8 0 -5 6 -7 14 -4 24 9 27 -12 4 -32
-12 -11 -18 -13 -14 -6 4 7 1 12 -9 12 -10 0 -13 -5 -9 -12 5 -8 2 -9 -10 -5
-10 4 -20 7 -23 7 -3 0 0 7 7 14 16 20 0 49 -20 36 -13 -8 -12 -10 3 -10 29 0
19 -20 -18 -36 -44 -18 -48 -18 -40 5 4 14 -1 20 -22 26 -50 14 -53 14 -69
-14 -13 -22 -22 -26 -45 -23 -16 2 -29 9 -28 16 3 22 -1 36 -10 36 -6 0 -9
-12 -8 -26 1 -19 -4 -29 -21 -35 -20 -8 -21 -6 -12 10 8 15 6 20 -10 24 -11 3
-20 1 -20 -5 0 -5 -4 -6 -10 -3 -5 3 -10 11 -10 16 0 6 4 7 10 4 6 -3 10 -1
10 5 0 7 6 8 18 1 14 -7 19 -6 19 4 0 8 -4 12 -9 9 -4 -3 -8 -1 -8 4 0 5 -12
7 -27 5 -37 -7 -83 -26 -83 -35 0 -13 -21 -9 -37 7 -8 8 -12 21 -10 28 4 9 6
9 6 0 1 -7 8 -13 17 -13 12 0 11 5 -7 19 -23 19 -24 19 -45 -5 -18 -19 -23
-20 -28 -8 -3 9 -11 12 -17 8 -8 -5 -9 -3 -5 5 5 7 14 10 22 7 8 -3 14 1 14
10 0 10 -6 14 -15 11 -8 -4 -17 -2 -20 3 -3 5 -21 2 -40 -6 -42 -17 -82 -18
-88 -1 -3 6 -6 8 -6 2 -1 -8 -107 -12 -133 -5 -22 6 -34 5 -45 -3 -7 -5 -21
-6 -30 -1 -17 8 -29 10 -101 16 -33 3 -56 24 -45 42 3 5 1 6 -4 3 -6 -4 -9
-19 -7 -34 l4 -28 -12 28 c-14 33 -28 36 -21 5 3 -14 1 -18 -4 -12 -14 19 -53
35 -66 28 -9 -6 -8 -3 1 8 10 13 10 17 0 21 -7 3 -2 6 12 7 24 2 23 3 -4 9
-16 3 -31 11 -33 18 -3 9 4 10 26 3 19 -5 31 -5 31 1 0 5 -9 9 -20 9 -14 0
-18 5 -13 16 4 11 8 12 13 4 5 -8 9 -7 13 4 4 9 17 16 30 16 28 0 54 24 37 35
-6 3 -8 11 -4 16 3 6 12 5 22 -3 12 -10 16 -10 19 0 3 6 9 12 14 12 6 0 8 -4
5 -9 -3 -5 1 -11 9 -15 15 -6 35 21 35 48 0 14 -134 16 -1380 16 l-1380 0 0
-3840z m4882 3773 c-6 -2 -9 -10 -6 -15 4 -7 2 -8 -5 -4 -13 9 -5 26 12 25 9
0 8 -2 -1 -6z m-46 -28 c-22 -17 -36 -19 -36 -7 0 14 12 22 34 22 21 -1 21 -1
2 -15z m-596 -185 c18 -12 2 -12 -25 0 -13 6 -15 9 -5 9 8 0 22 -4 30 -9z m47
-6 c-3 -3 -12 -4 -19 -1 -8 3 -5 6 6 6 11 1 17 -2 13 -5z m-475 -56 c-6 -6
-15 -8 -19 -4 -4 4 -1 11 7 16 19 12 27 3 12 -12z m9488 -260 c0 -4 -7 -8 -15
-8 -18 0 -20 -16 -2 -23 7 -3 5 -6 -5 -6 -12 -1 -18 6 -18 22 0 16 6 23 20 23
11 0 20 -4 20 -8z m205 2 c-3 -5 -10 -10 -16 -10 -5 0 -9 5 -9 10 0 6 7 10 16
10 8 0 12 -4 9 -10z m-2045 -114 c0 -3 -4 -8 -10 -11 -5 -3 -10 -1 -10 4 0 6
5 11 10 11 6 0 10 -2 10 -4z m-610 -46 c0 -5 -5 -10 -11 -10 -5 0 -7 5 -4 10
3 6 8 10 11 10 2 0 4 -4 4 -10z m-830 -54 c0 -3 -4 -8 -10 -11 -5 -3 -10 -1
-10 4 0 6 5 11 10 11 6 0 10 -2 10 -4z m-920 -80 c0 -3 -4 -8 -10 -11 -5 -3
-10 -1 -10 4 0 6 5 11 10 11 6 0 10 -2 10 -4z m-5540 -16 c0 -5 -5 -10 -11
-10 -5 0 -7 5 -4 10 3 6 8 10 11 10 2 0 4 -4 4 -10z m4901 -43 c-10 -9 -11 -8
-5 6 3 10 9 15 12 12 3 -3 0 -11 -7 -18z m-5081 -48 c0 -6 -4 -7 -10 -4 -5 3
-10 11 -10 16 0 6 5 7 10 4 6 -3 10 -11 10 -16z m530 1 c0 -8 -28 -21 -57 -26
-19 -3 -4 21 20 32 23 11 37 9 37 -6z m1005 10 c-3 -5 -11 -10 -16 -10 -6 0
-7 5 -4 10 3 6 11 10 16 10 6 0 7 -4 4 -10z m-791 -8 c2 -4 -3 -13 -13 -19
-13 -8 -17 -7 -17 8 0 19 20 26 30 11z m2921 -2 c3 -5 1 -10 -4 -10 -6 0 -11
5 -11 10 0 6 2 10 4 10 3 0 8 -4 11 -10z m895 6 c0 -3 -4 -8 -10 -11 -5 -3
-10 -1 -10 4 0 6 5 11 10 11 6 0 10 -2 10 -4z m-1155 -16 c3 -5 2 -10 -4 -10
-5 0 -13 5 -16 10 -3 6 -2 10 4 10 5 0 13 -4 16 -10z m-220 -10 c-3 -5 -12
-10 -18 -10 -7 0 -6 4 3 10 19 12 23 12 15 0z m-2308 -6 c-3 -3 -12 -4 -19 -1
-8 3 -5 6 6 6 11 1 17 -2 13 -5z m2448 -4 c25 -11 -1 -11 -35 0 -20 6 -21 8
-5 8 11 0 29 -3 40 -8z m-750 -10 c3 -5 1 -10 -4 -10 -6 0 -11 5 -11 10 0 6 2
10 4 10 3 0 8 -4 11 -10z m1890 -313 c11 -3 25 -6 30 -6 6 -1 4 -5 -4 -10 -8
-5 -21 -7 -29 -3 -11 4 -13 1 -7 -8 6 -9 4 -11 -5 -5 -7 5 -87 8 -176 7 -93 0
-166 3 -169 9 -4 5 0 10 7 10 50 4 82 10 87 15 7 7 237 -1 266 -9z m-1495
-293 l35 -14 -39 6 c-21 3 -89 5 -152 5 -65 -1 -114 3 -114 9 0 21 212 16 270
-6z m6025 -504 c-27 -12 -43 -12 -25 0 8 5 22 9 30 9 10 0 8 -3 -5 -9z"/>
<path d="M2945 7670 c3 -5 8 -10 11 -10 2 0 4 5 4 10 0 6 -5 10 -11 10 -5 0
-7 -4 -4 -10z"/>
<path d="M2976 7661 c-3 -5 1 -11 9 -14 9 -4 12 -1 8 9 -6 16 -10 17 -17 5z"/>
<path d="M2705 7590 c-3 -5 1 -10 10 -10 9 0 13 5 10 10 -3 6 -8 10 -10 10 -2
0 -7 -4 -10 -10z"/>
<path d="M2648 7503 c-10 -2 -18 -8 -18 -13 0 -4 9 -6 20 -3 11 3 20 9 20 14
0 5 -1 8 -2 8 -2 -1 -11 -3 -20 -6z"/>
<path d="M4540 7470 c-8 -5 -12 -12 -9 -15 4 -3 12 1 19 10 14 17 11 19 -10 5z"/>
<path d="M4378 7453 c7 -3 16 -2 19 1 4 3 -2 6 -13 5 -11 0 -14 -3 -6 -6z"/>
<path d="M4318 7423 c7 -3 16 -2 19 1 4 3 -2 6 -13 5 -11 0 -14 -3 -6 -6z"/>
<path d="M3756 7405 c-3 -8 -1 -15 4 -15 13 0 22 18 11 24 -5 3 -11 -1 -15 -9z"/>
<path d="M3800 7406 c0 -8 51 -13 56 -5 3 5 -9 9 -25 9 -17 0 -31 -2 -31 -4z"/>
<path d="M3505 7360 c-3 -5 1 -10 10 -10 9 0 13 5 10 10 -3 6 -8 10 -10 10 -2
0 -7 -4 -10 -10z"/>
<path d="M11553 7013 c-15 -5 -17 -23 -4 -23 5 0 11 7 15 15 3 8 4 15 3 14 -1
0 -8 -3 -14 -6z"/>
<path d="M11680 7010 c-9 -6 -7 -11 8 -19 24 -13 36 -2 17 16 -6 6 -18 7 -25
3z"/>
<path d="M11295 7000 c-13 -6 -15 -9 -5 -9 8 0 22 4 30 9 18 12 2 12 -25 0z"/>
<path d="M11025 6989 c-4 -6 -5 -12 -2 -15 2 -3 7 2 10 11 7 17 1 20 -8 4z"/>
<path d="M11527 6974 c6 -15 23 -19 23 -5 0 5 -7 11 -14 14 -10 4 -13 1 -9 -9z"/>
<path d="M4178 6843 c7 -3 16 -2 19 1 4 3 -2 6 -13 5 -11 0 -14 -3 -6 -6z"/>
<path d="M5385 6820 c3 -5 8 -10 11 -10 2 0 4 5 4 10 0 6 -5 10 -11 10 -5 0
-7 -4 -4 -10z"/>
<path d="M5116 6807 c3 -10 9 -15 12 -12 3 3 0 11 -7 18 -10 9 -11 8 -5 -6z"/>
<path d="M5330 6816 c0 -2 9 -6 20 -9 11 -3 20 -1 20 4 0 5 -9 9 -20 9 -11 0
-20 -2 -20 -4z"/>
<path d="M4663 6795 c0 -7 8 -10 19 -7 10 2 18 6 18 7 0 1 -8 5 -18 7 -11 3
-19 0 -19 -7z"/>
<path d="M4830 6802 c0 -12 19 -26 26 -19 2 2 -2 10 -11 17 -9 8 -15 8 -15 2z"/>
<path d="M4895 6800 c-17 -8 -17 -9 7 -7 15 1 24 5 22 9 -3 4 -6 8 -7 7 -1 0
-11 -4 -22 -9z"/>
<path d="M5188 6790 c-10 -11 -13 -22 -8 -25 6 -4 13 1 16 9 3 9 10 13 15 10
5 -3 6 2 3 10 -3 9 -7 16 -8 15 0 0 -9 -9 -18 -19z"/>
<path d="M4248 6778 c-10 -10 -14 -18 -9 -18 10 0 36 29 30 34 -2 1 -12 -6
-21 -16z"/>
<path d="M4616 6792 c-2 -4 4 -8 14 -8 10 0 16 4 14 8 -3 4 -9 8 -14 8 -5 0
-11 -4 -14 -8z"/>
<path d="M5000 6784 c0 -8 5 -12 10 -9 6 4 8 11 5 16 -9 14 -15 11 -15 -7z"/>
<path d="M5322 6780 c0 -14 2 -19 5 -12 2 6 2 18 0 25 -3 6 -5 1 -5 -13z"/>
<path d="M3730 6780 c0 -5 5 -10 11 -10 5 0 7 5 4 10 -3 6 -8 10 -11 10 -2 0
-4 -4 -4 -10z"/>
<path d="M5230 6778 c0 -10 -6 -18 -12 -18 -9 0 -8 -4 2 -10 8 -6 28 -7 43 -4
17 3 34 0 44 -8 14 -11 16 -11 11 2 -2 8 -19 18 -38 21 -18 4 -36 13 -41 21
-7 10 -9 9 -9 -4z"/>
<path d="M8111 6774 c0 -11 3 -14 6 -6 3 7 2 16 -1 19 -3 4 -6 -2 -5 -13z"/>
<path d="M8325 6780 c4 -6 11 -8 16 -5 14 9 11 15 -7 15 -8 0 -12 -5 -9 -10z"/>
<path d="M4434 6765 c-10 -8 -14 -15 -8 -15 6 0 17 7 24 15 16 19 9 19 -16 0z"/>
<path d="M4687 6773 c-14 -13 -7 -25 8 -13 8 6 18 10 22 7 4 -2 17 -1 28 4 16
6 13 8 -16 8 -20 1 -39 -2 -42 -6z"/>
<path d="M4890 6770 c0 -5 5 -10 10 -10 6 0 10 5 10 10 0 6 -4 10 -10 10 -5 0
-10 -4 -10 -10z"/>
<path d="M5410 6753 c0 -18 2 -33 4 -33 9 0 13 39 5 51 -6 10 -9 4 -9 -18z"/>
<path d="M4932 6753 c2 -9 9 -18 17 -21 10 -3 12 0 8 11 -3 9 -1 18 6 21 7 2
2 5 -11 5 -17 1 -23 -4 -20 -16z"/>
<path d="M5003 6763 c-13 -2 -23 -9 -23 -14 0 -15 47 -10 54 6 3 8 2 14 -2 14
-4 -1 -17 -4 -29 -6z"/>
<path d="M5480 6759 c0 -5 5 -7 10 -4 6 3 10 8 10 11 0 2 -4 4 -10 4 -5 0 -10
-5 -10 -11z"/>
<path d="M5518 6763 c6 -2 18 -2 25 0 6 3 1 5 -13 5 -14 0 -19 -2 -12 -5z"/>
<path d="M8250 6761 c0 -5 9 -7 20 -4 11 3 20 7 20 9 0 2 -9 4 -20 4 -11 0
-20 -4 -20 -9z"/>
<path d="M3614 6741 c0 -11 4 -17 8 -15 4 3 8 12 8 20 0 8 -4 14 -8 14 -4 0
-8 -9 -8 -19z"/>
<path d="M4180 6750 c0 -5 4 -10 9 -10 6 0 13 5 16 10 3 6 -1 10 -9 10 -9 0
-16 -4 -16 -10z"/>
<path d="M4500 6750 c0 -5 5 -10 11 -10 5 0 7 5 4 10 -3 6 -8 10 -11 10 -2 0
-4 -4 -4 -10z"/>
<path d="M4866 6745 c4 -8 12 -15 20 -15 19 0 18 16 -2 24 -22 9 -24 8 -18 -9z"/>
<path d="M5060 6750 c0 -6 7 -10 15 -10 8 0 15 2 15 4 0 2 -7 6 -15 10 -8 3
-15 1 -15 -4z"/>
<path d="M8050 6756 c0 -9 30 -14 35 -6 4 6 -3 10 -14 10 -12 0 -21 -2 -21 -4z"/>
<path d="M8205 6746 c20 -14 35 -12 35 5 0 5 -12 9 -27 9 -26 0 -26 -1 -8 -14z"/>
<path d="M4225 6740 c4 -6 11 -8 16 -5 14 9 11 15 -7 15 -8 0 -12 -5 -9 -10z"/>
<path d="M5126 6743 c-14 -14 -4 -21 26 -19 17 1 33 7 35 12 3 10 -51 16 -61
7z"/>
<path d="M7778 6743 c7 -3 16 -2 19 1 4 3 -2 6 -13 5 -11 0 -14 -3 -6 -6z"/>
<path d="M7860 6740 c0 -5 5 -10 10 -10 6 0 10 5 10 10 0 6 -4 10 -10 10 -5 0
-10 -4 -10 -10z"/>
<path d="M4690 6730 c0 -5 10 -10 23 -10 18 0 19 2 7 10 -19 13 -30 13 -30 0z"/>
<path d="M5450 6730 c0 -5 7 -10 15 -10 8 0 15 5 15 10 0 6 -7 10 -15 10 -8 0
-15 -4 -15 -10z"/>
<path d="M4190 6715 c-7 -9 -8 -15 -2 -15 5 0 12 7 16 15 3 8 4 15 2 15 -2 0
-9 -7 -16 -15z"/>
<path d="M5545 6719 c-4 -6 -5 -12 -2 -15 2 -3 7 2 10 11 7 17 1 20 -8 4z"/>
<path d="M6355 6720 c-3 -5 -1 -10 4 -10 6 0 11 5 11 10 0 6 -2 10 -4 10 -3 0
-8 -4 -11 -10z"/>
<path d="M7446 6722 c-3 -5 1 -9 9 -9 8 0 15 4 15 9 0 4 -4 8 -9 8 -6 0 -12
-4 -15 -8z"/>
<path d="M3520 6705 c0 -8 2 -15 4 -15 2 0 6 7 10 15 3 8 1 15 -4 15 -6 0 -10
-7 -10 -15z"/>
<path d="M4738 6703 c7 -3 16 -2 19 1 4 3 -2 6 -13 5 -11 0 -14 -3 -6 -6z"/>
<path d="M5415 6700 c-7 -11 9 -11 45 0 24 8 24 8 -7 9 -17 1 -35 -3 -38 -9z"/>
<path d="M3745 6690 c3 -5 8 -10 11 -10 2 0 4 5 4 10 0 6 -5 10 -11 10 -5 0
-7 -4 -4 -10z"/>
<path d="M6325 6690 c-3 -6 1 -7 9 -4 18 7 21 14 7 14 -6 0 -13 -4 -16 -10z"/>
<path d="M7088 6693 c7 -3 16 -2 19 1 4 3 -2 6 -13 5 -11 0 -14 -3 -6 -6z"/>
<path d="M5480 6679 c0 -5 5 -7 10 -4 6 3 10 8 10 11 0 2 -4 4 -10 4 -5 0 -10
-5 -10 -11z"/>
<path d="M5530 6681 c0 -6 5 -13 10 -16 6 -3 10 1 10 9 0 9 -4 16 -10 16 -5 0
-10 -4 -10 -9z"/>
<path d="M5590 6679 c0 -5 5 -7 10 -4 6 3 10 8 10 11 0 2 -4 4 -10 4 -5 0 -10
-5 -10 -11z"/>
</g>
</svg>
